<svg width="105" height="16" viewBox="0 0 105 16" fill="none" xmlns="http://www.w3.org/2000/svg">
<path d="M3.91349 0V9.47803C3.91349 10.426 4.14987 11.1555 4.62289 11.6672C5.0959 12.1787 5.79025 12.4343 6.70546 12.4343C7.62092 12.4343 8.32292 12.1787 8.81097 11.6672C9.29926 11.1555 9.54353 10.426 9.54353 9.47803V0H13.457V9.45557C13.457 10.8699 13.1519 12.0659 12.5416 13.0437C11.9313 14.0217 11.1072 14.7588 10.0698 15.2554C9.04759 15.7517 7.90315 16 6.63694 16C5.37048 16 4.23393 15.7593 3.22702 15.2778C2.23515 14.7815 1.44935 14.0442 0.86961 13.0664C0.28987 12.0732 0 10.8699 0 9.45557V0H3.91349Z" fill="#2250FC"/>
<path fill-rule="evenodd" clip-rule="evenodd" d="M26.7489 7.71802C27.6796 7.91357 28.4272 8.37231 28.9917 9.09448C29.5561 9.80151 29.8384 10.614 29.8384 11.5317C29.8384 12.8557 29.3654 13.9087 28.4196 14.6912C27.4888 15.4585 26.1844 15.842 24.5061 15.842H17.0225V0H24.2542C25.8869 0 27.1608 0.368653 28.0762 1.10571C29.007 1.84302 29.4723 2.84351 29.4723 4.10718C29.4723 5.04004 29.2204 5.8147 28.7171 6.43164C28.2288 7.04834 27.5727 7.4773 26.7489 7.71802ZM20.9357 6.40894H23.4989C24.1398 6.40894 24.6281 6.27368 24.9638 6.00293C25.3146 5.71704 25.4901 5.30322 25.4901 4.76172C25.4901 4.21997 25.3146 3.8064 24.9638 3.52051C24.6281 3.23462 24.1398 3.0918 23.4989 3.0918H20.9357V6.40894ZM23.8194 12.7278C24.4755 12.7278 24.9791 12.585 25.3299 12.2991C25.6961 11.998 25.8793 11.5693 25.8793 11.0127C25.8793 10.4561 25.6885 10.0198 25.3069 9.70386C24.9409 9.38794 24.4297 9.22998 23.7738 9.22998H20.9357V12.7278H23.8194Z" fill="#2250FC"/>
<path d="M36.8391 0V15.842H32.9256V0H36.8391Z" fill="#2250FC"/>
<path d="M50.3334 15.842L47.0607 10.9902L44.1771 15.842H39.7373L44.8867 7.78564L39.623 0H44.1771L47.4041 4.78418L50.2419 0H54.6817L49.5781 7.98877L54.8877 15.842H50.3334Z" fill="#2250FC"/>
<path fill-rule="evenodd" clip-rule="evenodd" d="M73.9462 5.1001C73.9462 6.01782 73.7325 6.86035 73.3053 7.62769C72.8782 8.37988 72.222 8.98926 71.3371 9.45557C70.4522 9.92188 69.3536 10.155 68.0416 10.155H65.6156V15.842H61.7021V0H68.0416C69.3233 0 70.4064 0.218262 71.2913 0.654541C72.1764 1.09082 72.84 1.69263 73.2824 2.45972C73.7248 3.22705 73.9462 4.10718 73.9462 5.1001ZM67.7441 7.08594C68.4917 7.08594 69.0485 6.91309 69.4148 6.5669C69.7808 6.22095 69.9639 5.73193 69.9639 5.1001C69.9639 4.46826 69.7808 3.97925 69.4148 3.6333C69.0485 3.28735 68.4917 3.11426 67.7441 3.11426H65.6156V7.08594H67.7441Z" fill="#2250FC"/>
<path fill-rule="evenodd" clip-rule="evenodd" d="M79.1712 13.0437L78.2099 15.842H74.1133L79.9265 0H84.4579L90.2709 15.842H86.1286L85.1673 13.0437H79.1712ZM84.1604 10.0649L82.1693 4.26514L80.2011 10.0649H84.1604Z" fill="#2250FC"/>
<path d="M105 0L99.4387 10.6064V15.842H95.5252V10.6064L89.964 0H94.4037L97.5164 6.63477L100.606 0H105Z" fill="#2250FC"/>
</svg>
