<?xml version="1.0" standalone="no"?>
<!DOCTYPE svg PUBLIC "-//W3C//DTD SVG 20010904//EN"
 "http://www.w3.org/TR/2001/REC-SVG-20010904/DTD/svg10.dtd">
<svg version="1.0" xmlns="http://www.w3.org/2000/svg"
 width="700.000000pt" height="700.000000pt" viewBox="0 0 700.000000 700.000000"
 preserveAspectRatio="xMidYMid meet">
<metadata>
Created by potrace 1.14, written by Peter Selinger 2001-2017
</metadata>
<g transform="translate(0.000000,700.000000) scale(0.100000,-0.100000)"
fill="#000000" stroke="none">
<path d="M0 5250 l0 -1750 3500 0 3500 0 0 1750 0 1750 -3500 0 -3500 0 0
-1750z m672 358 l3 -783 23 -56 c26 -64 79 -131 131 -163 116 -73 304 -82 436
-22 101 46 174 150 194 277 7 40 11 337 11 797 l0 732 205 0 206 0 -4 -807
c-3 -724 -5 -815 -20 -872 -95 -351 -320 -538 -688 -571 -182 -16 -369 11
-502 74 -242 112 -377 322 -407 632 -5 54 -10 424 -10 822 l0 722 210 0 209 0
3 -782z m2783 758 c176 -44 320 -147 384 -275 114 -225 89 -494 -60 -643 -55
-55 -185 -123 -255 -134 -24 -3 -44 -9 -44 -13 0 -3 26 -11 59 -18 130 -24
263 -115 328 -225 105 -174 93 -479 -26 -651 -68 -99 -181 -176 -321 -218 -74
-23 -86 -23 -637 -27 l-563 -3 0 1116 0 1116 533 -4 c464 -3 541 -6 602 -21z
m1295 -1091 l0 -1115 -215 0 -215 0 0 1115 0 1115 215 0 215 0 0 -1115z m888
772 c111 -189 208 -351 215 -361 11 -15 39 29 222 343 l210 360 218 1 218 0
-12 -22 c-7 -13 -149 -257 -317 -543 -168 -286 -305 -524 -305 -530 0 -5 149
-261 331 -569 183 -307 332 -560 332 -562 0 -3 -98 -3 -217 -2 l-217 3 -221
372 c-121 204 -223 374 -226 377 -3 4 -106 -165 -228 -374 l-223 -380 -215 0
c-180 0 -214 2 -210 14 3 8 150 260 326 562 177 301 321 552 321 559 0 6 -140
247 -311 536 -171 288 -315 532 -320 542 -9 16 4 17 208 17 l218 0 203 -343z"/>
<path d="M2734 5977 c-2 -7 -3 -116 -2 -242 l3 -230 286 0 285 0 59 30 c45 23
66 42 90 79 28 46 30 56 30 142 0 88 -1 94 -31 131 -42 52 -85 79 -145 92 -75
16 -568 15 -575 -2z"/>
<path d="M2730 4830 l0 -270 283 0 c319 0 355 6 424 64 62 54 86 120 81 221
-5 97 -36 160 -98 201 -74 49 -111 54 -412 54 l-278 0 0 -270z"/>
<path d="M250 1745 l0 -1425 270 0 270 0 0 550 0 550 310 0 c171 0 354 5 407
11 360 40 619 235 723 546 40 120 54 231 47 373 -21 449 -316 758 -772 810
-51 5 -344 10 -672 10 l-583 0 0 -1425z m1273 875 c161 -60 239 -277 172 -472
-20 -58 -93 -141 -149 -171 -40 -21 -52 -22 -398 -25 l-358 -3 0 346 0 345
340 0 c315 0 343 -1 393 -20z"/>
<path d="M3359 3143 c-5 -16 -247 -647 -536 -1403 -290 -756 -528 -1385 -531
-1398 l-4 -22 288 2 289 3 80 227 80 228 516 0 516 0 80 -227 80 -228 279 -3
c153 -1 284 0 290 2 8 3 -186 521 -531 1423 l-542 1418 -172 3 -171 2 -11 -27z
m346 -1359 c88 -251 161 -462 163 -470 3 -12 -49 -14 -328 -14 -261 0 -331 3
-328 13 3 6 76 218 164 469 87 252 161 458 164 458 3 0 77 -205 165 -456z"/>
<path d="M4563 3153 c2 -10 190 -404 416 -875 l411 -857 0 -550 0 -551 270 0
270 0 0 548 0 547 415 866 c228 476 415 871 415 877 0 9 -70 12 -278 12 l-279
0 -268 -605 c-148 -333 -273 -601 -277 -597 -4 4 -126 275 -271 602 l-265 595
-282 3 c-266 2 -282 1 -277 -15z"/>
</g>
</svg>
